<svg xmlns="http://www.w3.org/2000/svg" viewBox="0 0 128 128">
  <defs>
    <linearGradient id="bg" x1="0" y1="0" x2="1" y2="1">
      <stop offset="0" stop-color="#2196F3"/>
      <stop offset="1" stop-color="#1565C0"/>
    </linearGradient>
    <linearGradient id="globe" x1="0" y1="0" x2="1" y2="1">
      <stop offset="0" stop-color="#E3F2FD"/>
      <stop offset="1" stop-color="#BBDEFB"/>
    </linearGradient>
    <linearGradient id="serv" x1="0" y1="0" x2="0" y2="1">
      <stop offset="0" stop-color="#FFB300"/>
      <stop offset="1" stop-color="#FF8F00"/>
    </linearGradient>
  </defs>
  <rect width="128" height="128" rx="28" fill="url(#bg)"/>
  <circle cx="64" cy="56" r="32" fill="url(#globe)" opacity="0.95"/>
  <ellipse cx="64" cy="56" rx="32" ry="12" fill="none" stroke="#1565C0" stroke-width="1.5" opacity="0.4"/>
  <line x1="32" y1="56" x2="96" y2="56" stroke="#1565C0" stroke-width="1.5" opacity="0.4"/>
  <ellipse cx="64" cy="56" rx="14" ry="32" fill="none" stroke="#1565C0" stroke-width="1.5" opacity="0.4"/>
  <rect x="42" y="92" width="44" height="20" rx="4" fill="url(#serv)"/>
  <rect x="46" y="96" width="8" height="4" rx="1" fill="#FFF" opacity="0.8"/>
  <rect x="58" y="96" width="8" height="4" rx="1" fill="#FFF" opacity="0.8"/>
  <rect x="70" y="96" width="8" height="4" rx="1" fill="#FFF" opacity="0.8"/>
  <rect x="46" y="102" width="8" height="4" rx="1" fill="#FFF" opacity="0.8"/>
  <rect x="58" y="102" width="8" height="4" rx="1" fill="#FFF" opacity="0.8"/>
  <rect x="70" y="102" width="8" height="4" rx="1" fill="#FFF" opacity="0.8"/>
</svg>
